<svg xmlns="http://www.w3.org/2000/svg" width="3923.063" height="3922" viewBox="0 0 3923.063 3922">
  <g id="Group_139" data-name="Group 139" transform="translate(7894 6273)">
    <path id="Path_61171" data-name="Path 61171" d="M0,0H3923.063V3861.414H0Z" transform="translate(-7894 -6273)" fill="#fff"/>
    <path id="Path_61156" data-name="Path 61156" d="M-7084.427-5151.554l232.573,2009.393H-5177.6l379.146-2289.375Z" transform="translate(8.494 84.495)" fill="#e5bdb0"/>
    <path id="Path_61157" data-name="Path 61157" d="M-6152.968-5316.536l53.44,2231.849h131.974l98.961-2231.849Z" transform="translate(77.018 31.917)" fill="#fff"/>
    <path id="Path_61158" data-name="Path 61158" d="M-7015.625-4343.281h2313.984v193.158H-6973.078l-42.547-167.185Z" transform="translate(-8.496 60.357)" fill="#fff"/>
    <ellipse id="Ellipse_145" data-name="Ellipse 145" cx="275.5" cy="333.5" rx="275.5" ry="333.5" transform="translate(-6491.558 -4861.095) rotate(7)" fill="#fff"/>
    <ellipse id="Ellipse_146" data-name="Ellipse 146" cx="259" cy="330" rx="259" ry="330" transform="matrix(1, -0.017, 0.017, 1, -5940.456, -4816.71)" fill="#fff"/>
    <path id="Path_61159" data-name="Path 61159" d="M-6373.542-4170.885l380.885,525.339,432.083-609.61Z" transform="translate(13.685 66.519)" fill="#fff"/>
    <text id="BOXY_MAMA" data-name="BOXY MAMA" transform="translate(-7823 -2509)" fill="#707070" font-size="572" font-family="PTSans-Regular, PT Sans" letter-spacing="0.15em"><tspan x="0" y="0">BOXY MAMA</tspan></text>
    <path id="Path_61162" data-name="Path 61162" d="M-5827.047-4844.258c-1.156-3.073,18.555-465.859,18.555-465.859l992.313-121.469-175.484,1079.969h-499.945s64.435-91.338,58.248-225.877-77.359-223.354-97.183-243-58.443-51.539-99.635-62.885-79.617-17.4-135.578,4.813S-5825.891-4841.185-5827.047-4844.258Z" transform="translate(17.304 74.108)" fill="#cb7991"/>
    <path id="Path_61163" data-name="Path 61163" d="M-6962-4158.459h596.38l313.313,432.818,15.989,583.047h-807.729Z" transform="translate(10.512 72.406)" fill="#cb7991"/>
    <path id="Path_61167" data-name="Path 61167" d="M-5969.134-5768.031s23.659-165.484,43.714-258.891,50.718-143.8,78.925-177.234,66.5-70.833,115.756-84.8,122.183,3.746,151.128,30.063c15.312,13.921,34.819,31.121,46.426,81.211s6.566,80.519,0,119.148c-13.941,82.016-54.813,137.193-88.685,176.047s-68.029,69.844-133.149,114.453-156.87,80.193-156.87,80.193,101.026,57.271,181.15,77.979,144.488,27.8,252.051,24.859,192.7-13.062,319.081-66.555,159.857-91.227,206.714-152.508,45.185-112.187,40.406-191.234-79.564-169.781-79.564-169.781,38.017,6.02,63.532,14.477,38.531,19.352,38.531,19.352.246-36.619-9.325-72.906S-4939-6270.531-4939-6270.531s97.006,60.809,135.623,139.281,29.57,168.742,29.57,168.742-10.309,114.117-65.182,194.477-94.133,142.18-235.146,203.852-245.346,70.492-390.843,79.773-248.687-11.6-316.352-31.234S-5959.6-5617.832-5959.6-5617.832s-65.279,145.25-176.017,195.734-189.661,34.155-371.1,24.5-332.664-19.109-442.611,18.558-201.969,77.026-306.046,220.026-121.555,292.479-109.974,430.995,60.231,266.692,122.671,379.927,210.447,221.563,210.447,221.563-54.382,2.3-92.669-4.562-75.1-20.25-75.1-20.25-3.7,22.47,6.277,58.574,26.9,51.779,38.679,68.066c14.034,19.4-85.14-45.793-153.8-126.641s-101.982-141.293-129.144-196.75c-44.228-84.507-96-301.562-88.777-461.468s25.776-245.583,91.734-365.125c42.278-76.626,106.153-145.656,170.23-196.552s113.585-73.156,157.47-93.37c76.573-32.328,204.062-51.481,281.874-56.937,102.455-7.184,177.924-4.71,266.251,0,157.447,8.4,234.872,31.63,356.856-5.713S-6055.454-5676-6055.454-5676s-195.654,41.547-335.668-81.047-131.32-230.66-114.843-301.484,80.479-136.406,134.271-153.242,149.235-17.691,211.915,34.094c28.645,23.666,54.1,48.873,87.728,104.98s40.718,101.174,46.8,119.449C-6024.816-5951.937-5969.134-5768.031-5969.134-5768.031Z" transform="translate(0 86.008)" fill="#f5b753" stroke="#707070" stroke-width="1"/>
    <path id="Path_61168" data-name="Path 61168" d="M-6034.035-5755s-155.161-10.2-227.459-46.334-132.138-96.8-138.9-172.822,37.8-135.584,107.672-144.273,109.51,22.563,135.682,51.99,52.361,94.764,68.724,145.522S-6034.035-5755-6034.035-5755Z" transform="translate(12.57 92.427)" fill="#fff" stroke="#707070" stroke-width="1"/>
    <path id="Path_61169" data-name="Path 61169" d="M-5876.547-5780.133s26.172-180.753,48.449-247.254,39.506-107,95.16-151.53,103.432-25.229,125.844,0,23.264,83.723,12.243,119.944-41.324,81.487-74.444,121.721-102.333,89.9-124.694,109.071S-5876.547-5780.133-5876.547-5780.133Z" transform="translate(15.28 86.008)" fill="#fff" stroke="#707070" stroke-width="1"/>
    <path id="Path_61170" data-name="Path 61170" d="M-5740.6-4799.324c-3.593,1.756,53.867-24.24,102.037-7.384s90.322,64.757,110.375,111.332,32.933,113.747,24.74,186.393-41.318,136.8-54.334,157.594-90.473,118.406-90.473,118.406l-252.453,318.141,11.734-71.146,275.6-357.547s59.167-71.318,68.234-140.75,8.135-128.734-11.453-177.224-67.026-101.417-99.245-116.849S-5737.012-4801.08-5740.6-4799.324Z" transform="translate(15.413 69.725)" fill="#f5b753"/>
  </g>
</svg>
