<svg xmlns="http://www.w3.org/2000/svg" width="3600" height="3662" viewBox="0 0 3600 3662">
  <g id="Group_139" data-name="Group 139" transform="translate(7809 6297)">
    <rect id="Rectangle_147122" data-name="Rectangle 147122" width="3600" height="3600" transform="translate(-7809 -6297)" fill="#fff"/>
    <path id="Path_61156" data-name="Path 61156" d="M-7084.427-5151.554l229.652,2009.393h1653.229l374.384-2289.375Z" transform="translate(40.193 15.776)" fill="#f2c4b5"/>
    <path id="Path_61157" data-name="Path 61157" d="M-6152.968-5316.536l53.44,2231.849h131.974l98.961-2231.849Z" transform="translate(92.015 -36.074)" fill="#fff"/>
    <path id="Path_61158" data-name="Path 61158" d="M-7015.625-4343.281h2313.984v193.158H-6973.078l-42.547-167.185Z" transform="translate(31.639 9.841)" fill="#fff"/>
    <ellipse id="Ellipse_145" data-name="Ellipse 145" cx="275.5" cy="333.5" rx="275.5" ry="333.5" transform="translate(-6479.698 -4911.167) rotate(7)" fill="#fff"/>
    <ellipse id="Ellipse_146" data-name="Ellipse 146" cx="259" cy="330" rx="259" ry="330" transform="matrix(1, -0.017, 0.017, 1, -5922.794, -4866.776)" fill="#fff"/>
    <path id="Path_61159" data-name="Path 61159" d="M-6373.542-4170.885l380.885,525.339,432.083-609.61Z" transform="translate(28.762 15.081)" fill="#fff"/>
    <text id="BOXY_MAMA" data-name="BOXY MAMA" transform="translate(-7323 -2753)" fill="#707070" font-size="428" font-family="PTSans-Regular, PT Sans" letter-spacing="0.15em"><tspan x="0" y="0">BOXY MAMA</tspan></text>
    <path id="Path_61162" data-name="Path 61162" d="M-5827.047-4844.258c-1.156-3.073,18.555-465.859,18.555-465.859l992.313-121.469-175.484,1079.969h-499.945s64.435-91.338,58.248-225.877-77.359-223.354-97.183-243-58.443-51.539-99.635-62.885-79.617-17.4-135.578,4.813S-5825.891-4841.185-5827.047-4844.258Z" transform="translate(40.224 24.843)" fill="#c48396"/>
    <path id="Path_61163" data-name="Path 61163" d="M-6962-4158.459h596.38l313.313,432.818,15.989,583.047h-807.729Z" transform="translate(19.517 11.346)" fill="#c48396"/>
    <path id="Path_61167" data-name="Path 61167" d="M-5955.552-5768.031s23.865-165.484,44.1-258.891,51.16-143.8,79.613-177.234,67.078-70.833,116.766-84.8,123.248,3.746,152.445,30.063c15.445,13.921,35.123,31.121,46.831,81.211s6.624,80.519,0,119.148c-14.062,82.016-55.292,137.193-89.458,176.047s-68.623,69.844-134.31,114.453-158.237,80.193-158.237,80.193,101.906,57.271,182.729,77.979,145.748,27.8,254.248,24.859,194.377-13.062,321.862-66.555,161.251-91.227,208.516-152.508,45.578-112.187,40.758-191.234-80.258-169.781-80.258-169.781,38.348,6.02,64.086,14.477S-4867-6131.25-4867-6131.25s.248-36.619-9.406-72.906-40.031-66.375-40.031-66.375,97.852,60.809,136.8,139.281,29.828,168.742,29.828,168.742-10.4,114.117-65.75,194.477-94.953,142.18-237.2,203.852-247.484,70.492-394.25,79.773-250.854-11.6-319.109-31.234-179.828-102.191-179.828-102.191-65.848,145.25-177.551,195.734-191.314,34.155-374.33,24.5-335.562-19.109-446.469,18.558-203.729,77.026-308.713,220.026-122.615,292.479-110.932,430.995,60.756,266.692,123.741,379.927,212.281,221.563,212.281,221.563-54.855,2.3-93.477-4.562-75.754-20.25-75.754-20.25-3.729,22.47,6.332,58.574,27.133,51.779,39.016,68.066c14.156,19.4-85.882-45.793-155.137-126.641s-102.871-141.293-130.27-196.75c-44.613-84.507-96.837-301.562-89.551-461.468s26-245.583,92.534-365.125c42.647-76.626,107.079-145.656,171.714-196.552s114.575-73.156,158.842-93.37c77.241-32.328,205.84-51.481,284.331-56.937,103.348-7.184,179.475-4.71,268.572,0,158.819,8.4,236.919,31.63,359.966-5.713S-6042.625-5676-6042.625-5676s-197.359,41.547-338.594-81.047-132.465-230.66-115.844-301.484,81.18-136.406,135.441-153.242,150.535-17.691,213.762,34.094c28.895,23.666,54.567,48.873,88.492,104.98s41.073,101.174,47.207,119.449C-6011.72-5951.937-5955.552-5768.031-5955.552-5768.031Z" transform="translate(0 39.008)" fill="#edb076" stroke="#707070" stroke-width="1"/>
    <path id="Path_61168" data-name="Path 61168" d="M-6034.035-5755s-155.161-10.2-227.459-46.334-132.138-96.8-138.9-172.822,37.8-135.584,107.672-144.273,109.51,22.563,135.682,51.99,52.361,94.764,68.724,145.522S-6034.035-5755-6034.035-5755Z" transform="translate(25.084 45.427)" fill="#fff" stroke="#707070" stroke-width="1"/>
    <path id="Path_61169" data-name="Path 61169" d="M-5876.547-5780.133s26.172-180.753,48.449-247.254,39.506-107,95.16-151.53,103.432-25.229,125.844,0,23.264,83.723,12.243,119.944-41.324,81.487-74.444,121.721-102.333,89.9-124.694,109.071S-5876.547-5780.133-5876.547-5780.133Z" transform="translate(32.244 39.008)" fill="#fff" stroke="#707070" stroke-width="1"/>
    <path id="Path_61170" data-name="Path 61170" d="M-5740.6-4799.324c-3.593,1.756,53.867-24.24,102.037-7.384s90.322,64.757,110.375,111.332,32.933,113.747,24.74,186.393-41.318,136.8-54.334,157.594-90.473,118.406-90.473,118.406l-252.453,318.141,11.734-71.146,275.6-357.547s59.167-71.318,68.234-140.75,8.135-128.734-11.453-177.224-67.026-101.417-99.245-116.849S-5737.012-4801.08-5740.6-4799.324Z" transform="translate(32.802 19.061)" fill="#edb076"/>
  </g>
</svg>
